# xmcd
#
# Track frame offsets:
#	182
#	16342
#	28022
#	40612
#	54207
#	67352
#	82030
#	96205
#	107600
#	121055
#	134032
#	148465
#	161337
#	174527
#	188550
#	200090
#
# Disc length: 2857
#
# Revision: 2
# Processed by: cddbd v1.5.1PL0 Copyright (c) Steve Scherf et al.
# Submitted via: dBpowerAMP V4.0
# Normalized: r1:DSETVAR1,TDELIM( - )
#
DISCID=e20b2710
DTITLE=Various Artist - Roots Of The Blues Volume 4
DYEAR=1995
DGENRE=Blues
TTITLE0=Tommy Johnson - Cool Drink Of Water. 1928
TTITLE1=Blind Willie Mc.Tel - Statesboro Blues. 1928
TTITLE2=Mississippi John Hurt - Candy Man Blues. 1928
TTITLE3=Bessie Smith - Nobody Knows You When You're Down And Out. 1929
TTITLE4=Robert Wilkins - That's No Way To Get Along. 1929
TTITLE5=Sleepy John Estes - Broken Hearted, Ragged And Dirty Too. 1929
TTITLE6=Tampa Red - Kingfisher Blues. 1934
TTITLE7=Robert Johnson - Walking Blues. 1936
TTITLE8=Sonny Boy Williamson - Sugar Mama Blues. 1937
TTITLE9=Joe Turner - Roll 'Em Pete. 1938
TTITLE10=Tommy Mc.Clennan - New 'Shake 'Em On Down'. 1939
TTITLE11=Big Bill Broonzy - Rockin' Chair. 1940
TTITLE12=Robert Lockwood - Take A Little Walk With Me. 1941
TTITLE13=Muddy Waters - I Be's Troubled. 1941
TTITLE14=Leadbelly - Rock Island Line. 1940
TTITLE15=Big Maceo - Ramblin' Mind Blues. 1941
EXTD=
EXTT0=
EXTT1=
EXTT2=
EXTT3=
EXTT4=
EXTT5=
EXTT6=
EXTT7=
EXTT8=
EXTT9=
EXTT10=
EXTT11=
EXTT12=
EXTT13=
EXTT14=
EXTT15=
PLAYORDER=
